<svg xmlns="http://www.w3.org/2000/svg" fill="none" viewBox="0 0 162.4 163.7">
  <path fill="#ffffff" d="M70,47.1h-2.7c-6.2,0-12.4,0-18.7,0c-2.2,0-3-0.8-3-3V27.4c0-2.3,0.7-3,3-3H70V3.2C70,0.7,70.7,0,73.1,0h16.6c2.3,0,3,0.6,3,3c0,6.6,0,13.2,0,19.8v1.6h21.3c2.5,0,3.1,0.6,3.1,3.1c0,5.4,0,10.9,0,16.3c0,2.6-0.7,3.2-3.3,3.2H92.7c0,0.6-0.1,1.1-0.1,1.6c0,6.5,0,13,0,19.6c0,2.7-0.6,3.3-3.2,3.3H73c-2.2,0-3-0.8-3-3c0-6.6,0-13.1,0-19.7L70,47.1z"/>
  <path fill="#ffffff" d="M161.8,115c-1.6-24.6-6.2-48.2-14.8-70.5c-5.7-14.9-13.1-28.2-24.7-36.9c-9.5-7.1-18.7-2.5-21.6,9.8h20.4c1.7,0,3,1.3,3,3v30.6c0,1.7-1.3,3-3,3H99.7v21.4c0,1.7-1.3,3-3,3h-2.9l-4.9,44.7c0.1,7.1,3.3,13.9,8.7,18.5c5.7,4.9,11.9,9.5,18.3,12.5c8.7,4.1,17.8,7.2,27.2,9.1c9.5,1.8,13.5-2.5,16.8-14C163,138.1,162.6,126.5,161.8,115z"/>
  <path fill="#ffffff" d="M66,78.5c-1.7,0-3-1.3-3-3V54.1H41.6c-1.7,0-3-1.3-3-3V20.4c0-1.7,1.3-3,3-3h20C58.7,5.1,49.6,0.5,40,7.6c-11.6,8.7-19,22-24.7,36.9C6.7,66.7,2.1,90.4,0.5,115c-0.7,11.5-1.2,23.1,2,34.3c3.3,11.5,7.3,15.8,16.7,14c9.4-1.9,18.5-5,27.2-9.1c6.5-3,12.6-7.6,18.3-12.5c5.4-4.6,8.6-11.4,8.7-18.5l-4.9-44.6H66z"/>
</svg>
